<svg width="20" height="15" viewBox="0 0 20 15" fill="none" xmlns="http://www.w3.org/2000/svg">
<path d="M19.6917 1.15385C19.3067 0.466731 18.5983 0 17.7778 0H10V1.15385H19.6917ZM0 11.5385H20V12.6923H0V11.5385ZM10 6.92308H20V8.07692H10V6.92308ZM10 4.61538H20V5.76923H10V4.61538ZM0 9.23077H20V10.3846H0V9.23077ZM2.22222 15H17.7778C18.5983 15 19.3067 14.5333 19.6917 13.8462H0.308333C0.693333 14.5333 1.40167 15 2.22222 15ZM10 2.30769H20V3.46154H10V2.30769Z" fill="#B22334"/>
<path d="M0.0377778 13.084C0.0472222 13.1377 0.0577778 13.1913 0.0705556 13.2438C0.085 13.3021 0.102778 13.3581 0.121667 13.4146C0.171111 13.564 0.231111 13.7083 0.306667 13.8433L0.308333 13.8461H19.6917L19.6928 13.8438C19.7673 13.7078 19.8291 13.5647 19.8772 13.4163C19.9138 13.3081 19.942 13.197 19.9617 13.084C19.9844 12.9571 20 12.8267 20 12.6923H0C0 12.8267 0.0155556 12.9565 0.0377778 13.084ZM0 10.3846H20V11.5385H0V10.3846ZM0 8.07692V9.23076H20V8.07692H10H0ZM10 5.76922H20V6.92307H10V5.76922ZM10 3.46153H20V4.61538H10V3.46153ZM0.0711111 1.75615C0.085 1.6973 0.104444 1.64134 0.122222 1.5848C0.102929 1.64116 0.085878 1.69833 0.0711111 1.75615ZM10 2.30769H20C20 2.17326 19.9844 2.04288 19.9617 1.91538C19.9422 1.80236 19.9138 1.69121 19.8767 1.58307C19.8285 1.43412 19.7666 1.29037 19.6917 1.15384H10V2.30769Z" fill="#EEEEEE"/>
<path d="M10 0H2.22222C1.63285 0 1.06762 0.243131 0.650874 0.675907C0.234126 1.10868 0 1.69565 0 2.30769L0 8.07692H10V0Z" fill="#3C3B6E"/>
<path d="M1.11133 1.57269L1.45466 1.83172L1.32355 2.24999L1.66633 1.99153L2.00966 2.24999L1.87855 1.83172L2.22188 1.57269H1.79744L1.66633 1.15384L1.53577 1.57269H1.11133ZM2.22244 2.72653L2.56577 2.98557L2.43466 3.40384L2.77744 3.14538L3.12077 3.40384L2.98966 2.98557L3.33299 2.72653H2.90855L2.77744 2.30769L2.64688 2.72653H2.22244ZM4.44466 2.72653L4.78799 2.98557L4.65688 3.40384L4.99966 3.14538L5.34299 3.40384L5.21188 2.98557L5.55522 2.72653H5.13077L4.99966 2.30769L4.86911 2.72653H4.44466ZM6.66688 2.72653L7.01022 2.98557L6.87911 3.40384L7.22188 3.14538L7.56522 3.40384L7.43411 2.98557L7.77744 2.72653H7.35299L7.22188 2.30769L7.09133 2.72653H6.66688ZM2.22244 5.03422L2.56577 5.29326L2.43466 5.71153L2.77744 5.45307L3.12077 5.71153L2.98966 5.29326L3.33299 5.03422H2.90855L2.77744 4.61538L2.64688 5.03422H2.22244ZM4.44466 5.03422L4.78799 5.29326L4.65688 5.71153L4.99966 5.45307L5.34299 5.71153L5.21188 5.29326L5.55522 5.03422H5.13077L4.99966 4.61538L4.86911 5.03422H4.44466ZM6.66688 5.03422L7.01022 5.29326L6.87911 5.71153L7.22188 5.45307L7.56522 5.71153L7.43411 5.29326L7.77744 5.03422H7.35299L7.22188 4.61538L7.09133 5.03422H6.66688ZM3.33355 1.57269L3.67688 1.83172L3.54577 2.24999L3.88855 1.99153L4.23188 2.24999L4.10077 1.83172L4.44411 1.57269H4.01966L3.88855 1.15384L3.75799 1.57269H3.33355ZM5.55577 1.57269L5.89911 1.83172L5.76799 2.24999L6.11077 1.99153L6.45411 2.24999L6.32299 1.83172L6.66633 1.57269H6.24188L6.11077 1.15384L5.98022 1.57269H5.55577ZM7.77799 1.57269L8.12133 1.83172L7.99022 2.24999L8.33299 1.99153L8.67633 2.24999L8.54522 1.83172L8.88855 1.57269H8.46411L8.33299 1.15384L8.20244 1.57269H7.77799ZM1.11133 3.88038L1.45466 4.13942L1.32355 4.55769L1.66633 4.29922L2.00966 4.55769L1.87855 4.13942L2.22188 3.88038H1.79744L1.66633 3.46153L1.53577 3.88038H1.11133ZM3.54577 4.55769L3.88855 4.29922L4.23188 4.55769L4.10077 4.13942L4.44411 3.88038H4.01966L3.88855 3.46153L3.75799 3.88038H3.33355L3.67688 4.13942L3.54577 4.55769ZM5.55577 3.88038L5.89911 4.13942L5.76799 4.55769L6.11077 4.29922L6.45411 4.55769L6.32299 4.13942L6.66633 3.88038H6.24188L6.11077 3.46153L5.98022 3.88038H5.55577ZM7.77799 3.88038L8.12133 4.13942L7.99022 4.55769L8.33299 4.29922L8.67633 4.55769L8.54522 4.13942L8.88855 3.88038H8.46411L8.33299 3.46153L8.20244 3.88038H7.77799ZM1.11133 6.18807L1.45466 6.44711L1.32355 6.86538L1.66633 6.60692L2.00966 6.86538L1.87855 6.44711L2.22188 6.18807H1.79744L1.66633 5.76922L1.53577 6.18807H1.11133ZM3.54577 6.86538L3.88855 6.60692L4.23188 6.86538L4.10077 6.44711L4.44411 6.18807H4.01966L3.88855 5.76922L3.75799 6.18807H3.33355L3.67688 6.44711L3.54577 6.86538ZM5.55577 6.18807L5.89911 6.44711L5.76799 6.86538L6.11077 6.60692L6.45411 6.86538L6.32299 6.44711L6.66633 6.18807H6.24188L6.11077 5.76922L5.98022 6.18807H5.55577ZM7.77799 6.18807L8.12133 6.44711L7.99022 6.86538L8.33299 6.60692L8.67633 6.86538L8.54522 6.44711L8.88855 6.18807H8.46411L8.33299 5.76922L8.20244 6.18807H7.77799Z" fill="white"/>
</svg>
