<svg width="129" height="26" viewBox="0 0 129 26" fill="none" xmlns="http://www.w3.org/2000/svg">
<path d="M12.4978 10.6071C9.66821 10.6071 7.34203 11.5982 5.55833 12.8739C3.88747 14.0725 2.73305 15.4955 2.14283 16.5C2.73305 17.5045 3.88747 18.9275 5.55399 20.1261C7.34203 21.4018 9.66821 22.3929 12.4978 22.3929C15.3274 22.3929 17.6536 21.4018 19.4373 20.1261C21.1082 18.9275 22.2626 17.5045 22.8528 16.5C22.2626 15.4955 21.1082 14.0725 19.4417 12.8739C17.6536 11.5982 15.3274 10.6071 12.4978 10.6071ZM4.13918 11.6987C6.18327 10.2321 8.99119 9 12.4978 9C16.0045 9 18.8124 10.2321 20.8565 11.6987C22.8876 13.1551 24.2459 14.8929 24.8926 16.0882C25.0358 16.3527 25.0358 16.6473 24.8926 16.9118C24.2459 18.1071 22.8876 19.8482 20.8565 21.3013C18.8124 22.7679 16.0045 24 12.4978 24C8.99119 24 6.18327 22.7679 4.13918 21.3013C2.10811 19.8482 0.749718 18.1071 0.107413 16.9118C-0.0358042 16.6473 -0.0358042 16.3527 0.107413 16.0882C0.749718 14.8929 2.10811 13.1518 4.13918 11.6987ZM12.4978 19.1786C14.4161 19.1786 15.9698 17.9799 15.9698 16.5C15.9698 15.0201 14.4161 13.8214 12.4978 13.8214H12.411C12.4675 13.9922 12.4978 14.173 12.4978 14.3571C12.4978 15.5391 11.2523 16.5 9.72029 16.5C9.4816 16.5 9.24724 16.4766 9.02591 16.433V16.5C9.02591 17.9799 10.5796 19.1786 12.4978 19.1786ZM12.4978 12.2143C13.9711 12.2143 15.3841 12.6658 16.4259 13.4695C17.4676 14.2733 18.0529 15.3634 18.0529 16.5C18.0529 17.6366 17.4676 18.7267 16.4259 19.5305C15.3841 20.3342 13.9711 20.7857 12.4978 20.7857C11.0245 20.7857 9.61158 20.3342 8.5698 19.5305C7.52802 18.7267 6.94276 17.6366 6.94276 16.5C6.94276 15.3634 7.52802 14.2733 8.5698 13.4695C9.61158 12.6658 11.0245 12.2143 12.4978 12.2143Z" fill="#797979"/>
<path d="M85.5 5C84.1961 5 83.1918 5.95151 83.1918 7.08924C83.1918 8.18507 83.183 9.14386 83.183 9.14386H80.8646C80.8209 9.14386 80.7787 9.14808 80.7371 9.15412H80.0922V11.1241H90.9078V9.15412H90.2629C90.2213 9.14808 90.1791 9.14386 90.1354 9.14386H87.817C87.817 9.14386 87.8434 8.27593 87.8434 7.09564C87.8434 5.99979 86.804 5 85.5 5ZM77 6.99824V26H94V6.99824H88.6142V8.37482H92.4436V24.6209H78.5579V8.37482H82.3858V6.99824H77ZM85.5 7.02386C85.9272 7.02386 86.2723 7.32451 86.2723 7.69677C86.2723 8.06971 85.9272 8.37096 85.5 8.37096C85.0728 8.37096 84.7277 8.06969 84.7277 7.69677C84.7277 7.32453 85.0728 7.02386 85.5 7.02386ZM80.0922 12.4597V13.1339H80.8646V12.4597H80.0922ZM82.4107 12.4725V13.1467H90.9078V12.4725H82.4107ZM80.0922 15.0027V15.6769H80.8646V15.0027H80.0922ZM82.4107 15.0155V15.691H90.9078V15.0155H82.4107ZM80.0922 17.5457V18.2198H80.8646V17.5457H80.0922ZM82.4107 17.5598V18.2339H90.9078V17.5598H82.4107ZM80.0922 20.0899V20.7641H80.8646V20.0899H80.0922ZM82.4107 20.104V20.7782H90.9078V20.104H82.4107ZM80.0922 22.6329V23.3071H80.8646V22.6329H80.0922ZM82.4107 22.647V23.3212H90.9078V22.647H82.4107Z" fill="#797979"/>
<path d="M128 8C128.265 8 128.52 8.10536 128.707 8.29289C128.895 8.48043 129 8.73478 129 9C129 9.26522 128.895 9.51957 128.707 9.70711C128.52 9.89464 128.265 10 128 10H127L126.997 10.071L126.064 23.142C126.028 23.6466 125.802 24.1188 125.432 24.4636C125.062 24.8083 124.575 25 124.069 25H115.93C115.424 25 114.937 24.8083 114.567 24.4636C114.197 24.1188 113.971 23.6466 113.935 23.142L113.002 10.072C113 10.048 113 10.024 113 10H112C111.735 10 111.48 9.89464 111.293 9.70711C111.105 9.51957 111 9.26522 111 9C111 8.73478 111.105 8.48043 111.293 8.29289C111.48 8.10536 111.735 8 112 8H128ZM124.997 10H115.003L115.931 23H124.069L124.997 10ZM122 5C122.265 5 122.52 5.10536 122.707 5.29289C122.895 5.48043 123 5.73478 123 6C123 6.26522 122.895 6.51957 122.707 6.70711C122.52 6.89464 122.265 7 122 7H118C117.735 7 117.48 6.89464 117.293 6.70711C117.105 6.51957 117 6.26522 117 6C117 5.73478 117.105 5.48043 117.293 5.29289C117.48 5.10536 117.735 5 118 5H122Z" fill="#797979"/>
<path d="M40.1809 9.99233C40.5025 10.3157 40.8913 10.5635 41.3193 10.718C41.7473 10.8726 42.204 10.93 42.6566 10.8862C43.1093 10.8424 43.5466 10.6985 43.9373 10.4648C44.328 10.231 44.6623 9.91324 44.9164 9.53422L51.2538 9.4227C51.682 9.41756 52.0906 9.24162 52.3897 8.93358C52.6887 8.62553 52.8537 8.21061 52.8484 7.7801C52.8431 7.34959 52.6679 6.93875 52.3614 6.63797C52.0548 6.33718 51.6421 6.17108 51.2138 6.17621L45.0077 6.21522C44.7372 5.7588 44.3545 5.37989 43.8965 5.11488C43.4385 4.84986 42.9204 4.70763 42.3921 4.70184C41.8637 4.69605 41.3428 4.82689 40.8794 5.0818C40.4159 5.33672 40.0255 5.70715 39.7456 6.15753C39.7133 6.20961 39.6955 6.26943 39.6939 6.33078C39.6924 6.39213 39.7072 6.45279 39.7368 6.50648C39.7664 6.56017 39.8097 6.60494 39.8623 6.63614C39.9148 6.66735 39.9748 6.68387 40.0358 6.68399L42.5017 6.68503L42.5017 8.91769L40.0363 8.91712C39.9752 8.91724 39.9153 8.93378 39.8627 8.96503C39.8102 8.99627 39.7669 9.04108 39.7373 9.09482C39.7078 9.14856 39.6931 9.20926 39.6948 9.27065C39.6964 9.33203 39.7144 9.39186 39.7468 9.44393C39.8703 9.6424 40.0158 9.8262 40.1804 9.99185" fill="#DEDEDE"/>
<path d="M60.8191 5.60764C60.4975 5.28432 60.1087 5.0365 59.6807 4.88196C59.2527 4.72742 58.796 4.66998 58.3434 4.71377C57.8907 4.75756 57.4534 4.90148 57.0627 5.13522C56.672 5.36896 56.3377 5.68673 56.0836 6.06575L49.7462 6.17728C49.318 6.18241 48.9094 6.35835 48.6103 6.6664C48.3113 6.97445 48.1463 7.38936 48.1516 7.81987C48.1569 8.25038 48.3321 8.66122 48.6386 8.96201C48.9452 9.2628 49.3579 9.42889 49.7862 9.42376L55.9923 9.38476C56.2628 9.84118 56.6455 10.2201 57.1035 10.4851C57.5615 10.7501 58.0796 10.8923 58.6079 10.8981C59.1363 10.9039 59.6572 10.7731 60.1206 10.5182C60.5841 10.2633 60.9745 9.89283 61.2544 9.44245C61.2867 9.39036 61.3045 9.33055 61.3061 9.2692C61.3076 9.20784 61.2928 9.14718 61.2632 9.09349C61.2336 9.03981 61.1903 8.99504 61.1377 8.96383C61.0852 8.93262 61.0252 8.91611 60.9642 8.91599L58.4983 8.91494L58.4983 6.68229L60.9637 6.68285C61.0248 6.68273 61.0847 6.66619 61.1373 6.63495C61.1898 6.6037 61.2331 6.55889 61.2627 6.50515C61.2922 6.45142 61.3069 6.39071 61.3052 6.32933C61.3036 6.26794 61.2856 6.20811 61.2532 6.15604C61.1297 5.95758 60.9842 5.77378 60.8196 5.60813" fill="#DEDEDE"/>
<path d="M58.4933 15.7352L57.314 12.1776C57.1429 11.6597 56.8139 11.2092 56.3736 10.8901C55.9333 10.571 55.4042 10.3995 54.8614 10.4H47.0011C46.4583 10.3995 45.9292 10.571 45.4889 10.8901C45.0486 11.2092 44.7196 11.6597 44.5485 12.1776L43.3692 15.7352C43.0559 15.8674 42.7884 16.0895 42.6001 16.3738C42.4118 16.658 42.3111 16.9918 42.3105 17.3334V21.6667C42.3105 22.3193 42.6752 22.8818 43.2062 23.1773C43.195 23.2345 43.1726 23.2865 43.1726 23.3463V25.1334C43.1726 25.3632 43.2634 25.5837 43.4251 25.7462C43.5868 25.9087 43.806 26 44.0347 26H44.8968C45.1254 26 45.3447 25.9087 45.5063 25.7462C45.668 25.5837 45.7588 25.3632 45.7588 25.1334V23.4H56.1037V25.1334C56.1037 25.3632 56.1945 25.5837 56.3561 25.7462C56.5178 25.9087 56.7371 26 56.9657 26H57.8278C58.0564 26 58.2757 25.9087 58.4374 25.7462C58.599 25.5837 58.6899 25.3632 58.6899 25.1334V23.3463C58.6899 23.2865 58.6674 23.2336 58.6562 23.1773C58.9264 23.0292 59.1521 22.8109 59.3096 22.5452C59.4672 22.2794 59.5509 21.976 59.5519 21.6667V17.3334C59.5519 16.6149 59.114 15.9978 58.4933 15.7352ZM44.0347 21.6667V17.3334H57.8278L57.8295 21.6667H44.0347ZM47.0011 12.1334H54.8605C55.2321 12.1334 55.5614 12.3708 55.6787 12.7262L56.6321 15.6H45.2304L46.183 12.7262C46.2402 12.5535 46.35 12.4033 46.4968 12.2969C46.6436 12.1905 46.8201 12.1333 47.0011 12.1334Z" fill="#DEDEDE"/>
<path d="M46.1896 20.8001C46.9037 20.8001 47.4827 20.218 47.4827 19.5001C47.4827 18.7821 46.9037 18.2001 46.1896 18.2001C45.4754 18.2001 44.8965 18.7821 44.8965 19.5001C44.8965 20.218 45.4754 20.8001 46.1896 20.8001Z" fill="#DEDEDE"/>
<path d="M55.6725 20.8001C56.3867 20.8001 56.9656 20.218 56.9656 19.5001C56.9656 18.7821 56.3867 18.2001 55.6725 18.2001C54.9583 18.2001 54.3794 18.7821 54.3794 19.5001C54.3794 20.218 54.9583 20.8001 55.6725 20.8001Z" fill="#DEDEDE"/>
</svg>
