<svg width="20" height="22" viewBox="0 0 20 22" fill="none" xmlns="http://www.w3.org/2000/svg">
<path d="M14 8.66084C14 9.7586 13.5786 10.8114 12.8284 11.5876C12.0783 12.3638 11.0609 12.7999 10 12.7999C8.93913 12.7999 7.92172 12.3638 7.17157 11.5876C6.42143 10.8114 6 9.7586 6 8.66084C6 7.56309 6.42143 6.5103 7.17157 5.73407C7.92172 4.95784 8.93913 4.52176 10 4.52176C11.0609 4.52176 12.0783 4.95784 12.8284 5.73407C13.5786 6.5103 14 7.56309 14 8.66084Z" fill="#969696"/>
<path fill-rule="evenodd" clip-rule="evenodd" d="M9.592 21.0697C4.2585 20.8483 0 16.3036 0 10.7303C0 5.01527 4.477 0.382599 10 0.382599C15.523 0.382599 20 5.01527 20 10.7303C20 16.4454 15.523 21.078 10 21.078C9.95433 21.0783 9.90867 21.0783 9.863 21.078C9.7725 21.078 9.682 21.0749 9.592 21.0697ZM3.583 17.2597C3.50823 17.0375 3.48278 16.8008 3.50854 16.567C3.5343 16.3333 3.6106 16.1085 3.73179 15.9095C3.85298 15.7104 4.01593 15.5422 4.20856 15.4172C4.40119 15.2922 4.61855 15.2137 4.8445 15.1876C8.7425 14.7411 11.2815 14.7814 15.1605 15.1969C15.3868 15.2213 15.6046 15.2988 15.7976 15.4235C15.9905 15.5481 16.1534 15.7168 16.2739 15.9164C16.3943 16.1161 16.4691 16.3416 16.4927 16.5757C16.5162 16.8099 16.4877 17.0464 16.4095 17.2675C18.072 15.5269 19.003 13.1775 19 10.7303C19 5.58698 14.9705 1.41737 10 1.41737C5.0295 1.41737 1 5.58698 1 10.7303C1 13.2738 1.9855 15.5792 3.583 17.2597Z" fill="#969696"/>
</svg>
