<svg width="14" height="18" viewBox="0 0 14 18" fill="none" xmlns="http://www.w3.org/2000/svg">
<path d="M3.86133 13.3375C4.44175 14.0011 4.97001 14.7001 5.44229 15.4295C5.84553 16.1154 6.01362 16.5806 6.30831 17.4071C6.48904 17.8637 6.65238 18 7.00356 18C7.38624 18 7.55986 17.7681 7.694 17.4096C7.97256 16.629 8.19113 16.0334 8.53596 15.4705C9.21262 14.3838 10.0534 13.4182 10.8796 12.4901C11.1033 12.2275 12.5493 10.6973 13.2003 9.48987C13.2003 9.48987 14.0005 8.16355 14.0005 6.31122C14.0005 4.57854 13.2114 3.37683 13.2114 3.37683L10.9395 3.92267L9.55986 7.18271L9.21853 7.63224L9.15028 7.71368L9.05951 7.81562L8.90016 7.97845L8.67245 8.18269L7.44388 9.08067L4.37229 10.6718L3.86133 13.3375Z" fill="#34A853"/>
<path d="M0.689453 9.26691C1.43911 10.8031 2.88473 12.1535 3.8628 13.3386L9.05781 7.81775C9.05781 7.81775 8.32592 8.67648 6.99831 8.67648C5.5195 8.67648 4.32482 7.61705 4.32482 6.28116C4.32482 5.36508 4.93914 4.73574 4.93914 4.73574L1.41264 5.58349L0.689453 9.26691Z" fill="#FBBC04"/>
<path d="M9.11612 0.283909C10.8415 0.782989 12.3183 1.83075 13.2115 3.37577L9.05969 7.81456C9.05969 7.81456 9.67401 7.17385 9.67401 6.26345C9.67401 4.89647 8.39096 3.87525 7.0049 3.87525C5.69418 3.87525 4.94141 4.73256 4.94141 4.73256V1.93618L9.11612 0.283909Z" fill="#4285F4"/>
<path d="M1.64062 2.2452C2.67114 1.13906 4.48445 0 6.98437 0C8.19725 0 9.11102 0.285672 9.11102 0.285672L4.93668 4.73501H1.97912L1.64062 2.2452Z" fill="#1A73E8"/>
<path d="M0.689671 9.2669C0.689671 9.2669 0 8.05523 0 6.29989C0 4.64085 0.718872 3.19066 1.64133 2.24519L4.93974 4.73539L0.689671 9.2669Z" fill="#EA4335"/>
</svg>
