<svg width="13" height="12" viewBox="0 0 13 12" fill="none" xmlns="http://www.w3.org/2000/svg">
<path d="M2.80664 6.31836C2.80664 6.18907 2.86179 6.06507 2.95997 5.97365C3.05814 5.88222 3.19129 5.83086 3.33013 5.83086H5.7682V3.56041C5.7682 3.43112 5.82335 3.30712 5.92152 3.2157C6.0197 3.12427 6.15285 3.07291 6.29169 3.07291C6.43053 3.07291 6.56368 3.12427 6.66185 3.2157C6.76002 3.30712 6.81518 3.43112 6.81518 3.56041V5.83086H9.25324C9.39208 5.83086 9.52524 5.88222 9.62341 5.97365C9.72158 6.06507 9.77673 6.18907 9.77673 6.31836C9.77673 6.44765 9.72158 6.57165 9.62341 6.66307C9.52524 6.7545 9.39208 6.80586 9.25324 6.80586H6.81518V9.07631C6.81518 9.2056 6.76002 9.3296 6.66185 9.42103C6.56368 9.51245 6.43053 9.56381 6.29169 9.56381C6.15285 9.56381 6.0197 9.51245 5.92152 9.42103C5.82335 9.3296 5.7682 9.2056 5.7682 9.07631V6.80586H3.33013C3.19129 6.80586 3.05814 6.7545 2.95997 6.66307C2.86179 6.57165 2.80664 6.44765 2.80664 6.31836Z" fill="#8E8E8E"/>
<path fill-rule="evenodd" clip-rule="evenodd" d="M3.02338 0.968207C5.19584 0.74393 7.38826 0.74393 9.56072 0.968207C10.8359 1.10081 11.8655 2.03616 12.0148 3.23021C12.2731 5.28226 12.2731 7.35511 12.0148 9.40716C11.8648 10.6012 10.8352 11.5359 9.56072 11.6692C7.38827 11.8934 5.19584 11.8934 3.02338 11.6692C1.74816 11.5359 0.71863 10.6012 0.569261 9.40716C0.311549 7.35517 0.311549 5.2822 0.569261 3.23021C0.71863 2.03616 1.74886 1.10081 3.02338 0.968207ZM9.44486 1.93671C7.3494 1.72041 5.2347 1.72041 3.13925 1.93671C2.75134 1.97678 2.38926 2.13748 2.11152 2.39282C1.83377 2.64817 1.65658 2.98326 1.60856 3.34396C1.36032 5.32059 1.36032 7.31743 1.60856 9.29406C1.65672 9.65464 1.83398 9.98958 2.11171 10.2448C2.38945 10.5 2.75144 10.6606 3.13925 10.7007C5.21715 10.9165 7.36695 10.9165 9.44486 10.7007C9.83254 10.6605 10.1944 10.4998 10.472 10.2446C10.7496 9.9894 10.9267 9.65454 10.9748 9.29406C11.2231 7.31743 11.2231 5.32059 10.9748 3.34396C10.9266 2.98359 10.7493 2.64888 10.4718 2.3938C10.1942 2.13873 9.83244 1.97816 9.44486 1.93801" fill="#8E8E8E"/>
</svg>
