<svg width="15" height="17" viewBox="0 0 15 17" fill="none" xmlns="http://www.w3.org/2000/svg">
<path d="M3.46875 8.44081C3.46875 8.26179 3.53239 8.0901 3.64567 7.96352C3.75894 7.83693 3.91258 7.76581 4.07278 7.76581H6.88593V4.62211C6.88593 4.44309 6.94957 4.2714 7.06285 4.14482C7.17612 4.01823 7.32976 3.94711 7.48996 3.94711C7.65016 3.94711 7.80379 4.01823 7.91707 4.14482C8.03035 4.2714 8.09399 4.44309 8.09399 4.62211V7.76581H10.9071C11.0673 7.76581 11.221 7.83693 11.3343 7.96352C11.4475 8.0901 11.5112 8.26179 11.5112 8.44081C11.5112 8.61983 11.4475 8.79152 11.3343 8.91811C11.221 9.0447 11.0673 9.11581 10.9071 9.11581H8.09399V12.2595C8.09399 12.4385 8.03035 12.6102 7.91707 12.7368C7.80379 12.8634 7.65016 12.9345 7.48996 12.9345C7.32976 12.9345 7.17612 12.8634 7.06285 12.7368C6.94957 12.6102 6.88593 12.4385 6.88593 12.2595V9.11581H4.07278C3.91258 9.11581 3.75894 9.0447 3.64567 8.91811C3.53239 8.79152 3.46875 8.61983 3.46875 8.44081Z" fill="#8E8E8E"/>
<path fill-rule="evenodd" clip-rule="evenodd" d="M3.71876 1.03291C6.22544 0.722369 8.75516 0.722369 11.2618 1.03291C12.7333 1.21651 13.9212 2.51161 14.0935 4.16491C14.3915 7.00621 14.3915 9.87631 14.0935 12.7176C13.9204 14.3709 12.7325 15.6651 11.2618 15.8496C8.75516 16.1602 6.22544 16.1602 3.71876 15.8496C2.24735 15.6651 1.05943 14.3709 0.887083 12.7176C0.589722 9.87639 0.589722 7.00612 0.887083 4.16491C1.05943 2.51161 2.24816 1.21651 3.71876 1.03291ZM11.1282 2.37391C8.71033 2.07442 6.27028 2.07442 3.85245 2.37391C3.40486 2.4294 2.98708 2.65189 2.66661 3.00545C2.34613 3.35901 2.14168 3.82298 2.08628 4.32241C1.79985 7.05928 1.79985 9.82413 2.08628 12.561C2.14185 13.0603 2.34638 13.524 2.66684 13.8774C2.9873 14.2308 3.40498 14.4532 3.85245 14.5086C6.25004 14.8074 8.73057 14.8074 11.1282 14.5086C11.5755 14.453 11.993 14.2305 12.3133 13.8772C12.6336 13.5238 12.838 13.0601 12.8935 12.561C13.18 9.82413 13.18 7.05928 12.8935 4.32241C12.8378 3.82344 12.6333 3.35999 12.3131 3.00681C11.9928 2.65362 11.5754 2.4313 11.1282 2.37571" fill="#8E8E8E"/>
</svg>
