<svg width="23" height="23" viewBox="0 0 23 23" fill="none" xmlns="http://www.w3.org/2000/svg">
<path d="M17.9311 0.00030017C17.661 -0.00436241 17.3927 0.0453355 17.1422 0.146438C16.8917 0.24754 16.664 0.39798 16.4728 0.58881L15.5755 1.51374L21.492 7.45715L22.3894 6.53312C22.583 6.3399 22.7365 6.11042 22.8413 5.85781C22.9461 5.6052 23 5.33441 23 5.06095C23 4.78748 22.9461 4.5167 22.8413 4.26409C22.7365 4.01148 22.583 3.782 22.3894 3.58878L19.4172 0.616621C19.0222 0.223755 18.4883 0.00231786 17.9311 0.00030017ZM14.5659 2.32743L13.1633 3.67311L19.3328 9.8408L20.7633 8.52293L14.5659 2.32743ZM12.265 4.65455L2.56412 14.269C2.4539 14.3254 2.35691 14.4045 2.27956 14.5012C2.20221 14.5978 2.14626 14.7098 2.11542 14.8297L0.0388442 21.8676C-0.00804185 22.0196 -0.012573 22.1815 0.0257383 22.3359C0.0640496 22.4903 0.143753 22.6313 0.25627 22.7438C0.368787 22.8563 0.509858 22.936 0.664301 22.9743C0.818744 23.0126 0.98071 23.008 1.13277 22.9612L8.17194 20.8861C8.33172 20.8623 8.48178 20.7947 8.60549 20.6908C8.7292 20.5869 8.82172 20.4508 8.87281 20.2976L18.4355 10.8214L17.1181 9.50438L7.30236 19.3449L3.34844 20.4932L2.50668 19.6526L3.71278 15.5321L13.4441 5.83157L12.265 4.65455ZM14.3963 6.81302L4.55364 16.6813L5.98319 16.989L6.17972 18.3078L16.0511 8.46641L14.3963 6.81302Z" fill="#9F9F9F"/>
</svg>
