<svg width="12" height="12" viewBox="0 0 12 12" fill="none" xmlns="http://www.w3.org/2000/svg">
<path d="M7.91062 4.37573L6.56618 5.72018L6.21262 6.07373L6.56618 6.42728L7.91062 7.77173L7.77173 7.91062L6.42728 6.56618L6.07373 6.21262L5.72018 6.56618L4.37573 7.91062L4.23684 7.77173L5.58128 6.42728L5.93484 6.07373L5.58128 5.72018L4.23684 4.37573L4.37573 4.23684L5.72018 5.58128L6.07373 5.93484L6.42728 5.58128L7.77173 4.23684L7.91062 4.37573ZM2.17909 9.95609C1.65378 9.44873 1.23478 8.84183 0.946527 8.17081C0.658278 7.49979 0.506554 6.77808 0.500208 6.04779C0.493862 5.31751 0.633021 4.59327 0.909566 3.91734C1.18611 3.24141 1.5945 2.62732 2.11091 2.11091C2.62732 1.5945 3.24141 1.18611 3.91734 0.909566C4.59327 0.633021 5.31751 0.493862 6.04779 0.500208C6.77808 0.506554 7.49979 0.658278 8.17081 0.946527C8.84183 1.23478 9.44873 1.65378 9.95609 2.17909C10.958 3.2164 11.5123 4.60571 11.4998 6.04779C11.4873 7.48987 10.9088 8.86934 9.88909 9.88909C8.86934 10.9088 7.48987 11.4873 6.04779 11.4998C4.60571 11.5123 3.2164 10.958 2.17909 9.95609ZM2.32418 9.82328C3.31862 10.8177 4.66737 11.3764 6.07373 11.3764C7.48008 11.3764 8.82884 10.8177 9.82328 9.82328C10.8177 8.82884 11.3764 7.48008 11.3764 6.07373C11.3764 4.66737 10.8177 3.31862 9.82328 2.32418C8.82884 1.32973 7.48008 0.77106 6.07373 0.77106C4.66737 0.77106 3.31862 1.32973 2.32418 2.32418C1.32973 3.31862 0.77106 4.66737 0.77106 6.07373C0.77106 7.48008 1.32973 8.82884 2.32418 9.82328Z" stroke="white"/>
</svg>
