<svg width="27" height="27" viewBox="0 0 27 27" fill="none" xmlns="http://www.w3.org/2000/svg">
<path d="M26 11.9346C25.6179 9.17977 24.3423 6.62726 22.3697 4.67022C20.3972 2.71318 17.8371 1.4602 15.0839 1.10427C12.3306 0.74835 9.53691 1.30923 7.13313 2.70053C4.72934 4.09182 2.84883 6.23633 1.78125 8.80373M1 2.54203V8.80373H7.25M1 15.0654C1.38212 17.8202 2.65771 20.3727 4.63025 22.3298C6.6028 24.2868 9.16288 25.5398 11.9161 25.8957C14.6694 26.2517 17.4631 25.6908 19.8669 24.2995C22.2707 22.9082 24.1512 20.7637 25.2188 18.1963M26 24.458V18.1963H19.75" stroke="#969696" stroke-width="2" stroke-linecap="round" stroke-linejoin="round"/>
</svg>
