<svg width="23" height="22" viewBox="0 0 23 22" fill="none" xmlns="http://www.w3.org/2000/svg">
<path d="M21.5625 2.50155L15.8075 2.50157V1.19902C15.8075 0.837925 15.4858 0.545456 15.0887 0.545456C14.6916 0.545456 14.37 0.837925 14.37 1.19902V2.50124H8.61997V1.19902C8.61997 0.837925 8.29833 0.545456 7.90122 0.545456C7.50411 0.545456 7.18247 0.837925 7.18247 1.19902V2.50124H1.4375C0.643641 2.50124 0 3.08651 0 3.80837V20.1474C0 20.8693 0.643641 21.4545 1.4375 21.4545H21.5625C22.3564 21.4545 23 20.8693 23 20.1474V3.80837C23 3.08681 22.3564 2.50155 21.5625 2.50155ZM21.5625 20.1474H1.4375V3.80837H7.18247V4.46683C7.18247 4.8279 7.50411 5.12039 7.90122 5.12039C8.29833 5.12039 8.61997 4.8279 8.61997 4.46683V3.80869H14.37V4.46716C14.37 4.82825 14.6916 5.12072 15.0887 5.12072C15.4858 5.12072 15.8075 4.82825 15.8075 4.46716V3.80869H21.5625V20.1474ZM16.5312 10.9979H17.9688C18.3655 10.9979 18.6875 10.7051 18.6875 10.3443V9.03717C18.6875 8.6764 18.3655 8.38361 17.9688 8.38361H16.5312C16.1345 8.38361 15.8125 8.6764 15.8125 9.03717V10.3443C15.8125 10.7051 16.1345 10.9979 16.5312 10.9979ZM16.5312 16.226H17.9688C18.3655 16.226 18.6875 15.9336 18.6875 15.5725V14.2653C18.6875 13.9046 18.3655 13.6118 17.9688 13.6118H16.5312C16.1345 13.6118 15.8125 13.9046 15.8125 14.2653V15.5725C15.8125 15.9339 16.1345 16.226 16.5312 16.226ZM12.2188 13.6118H10.7812C10.3845 13.6118 10.0625 13.9046 10.0625 14.2653V15.5725C10.0625 15.9336 10.3845 16.226 10.7812 16.226H12.2188C12.6155 16.226 12.9375 15.9336 12.9375 15.5725V14.2653C12.9375 13.9049 12.6155 13.6118 12.2188 13.6118ZM12.2188 8.38361H10.7812C10.3845 8.38361 10.0625 8.6764 10.0625 9.03717V10.3443C10.0625 10.7051 10.3845 10.9979 10.7812 10.9979H12.2188C12.6155 10.9979 12.9375 10.7051 12.9375 10.3443V9.03717C12.9375 8.67608 12.6155 8.38361 12.2188 8.38361ZM6.46875 8.38361H5.03125C4.6345 8.38361 4.3125 8.6764 4.3125 9.03717V10.3443C4.3125 10.7051 4.6345 10.9979 5.03125 10.9979H6.46875C6.8655 10.9979 7.1875 10.7051 7.1875 10.3443V9.03717C7.1875 8.67608 6.8655 8.38361 6.46875 8.38361ZM6.46875 13.6118H5.03125C4.6345 13.6118 4.3125 13.9046 4.3125 14.2653V15.5725C4.3125 15.9336 4.6345 16.226 5.03125 16.226H6.46875C6.8655 16.226 7.1875 15.9336 7.1875 15.5725V14.2653C7.1875 13.9049 6.8655 13.6118 6.46875 13.6118Z" fill="#AAAAAA"/>
</svg>
