<svg width="11" height="12" viewBox="0 0 11 12" fill="none" xmlns="http://www.w3.org/2000/svg">
<path d="M4 4.33333L5.5 6ZM5.5 6L7 7.66667ZM5.5 6L4 7.66667ZM5.5 6L7 4.33333ZM5.5 11C4.90905 11 4.32389 10.8707 3.77792 10.6194C3.23196 10.3681 2.73588 9.99983 2.31802 9.53553C1.90016 9.07124 1.56869 8.52005 1.34254 7.91342C1.1164 7.30679 1 6.65661 1 6C1 5.34339 1.1164 4.69321 1.34254 4.08658C1.56869 3.47995 1.90016 2.92876 2.31802 2.46447C2.73588 2.00017 3.23196 1.63188 3.77792 1.3806C4.32389 1.12933 4.90905 1 5.5 1C6.69347 1 7.83807 1.52678 8.68198 2.46447C9.52589 3.40215 10 4.67392 10 6C10 7.32608 9.52589 8.59785 8.68198 9.53553C7.83807 10.4732 6.69347 11 5.5 11Z" fill="#FF0000"/>
<path d="M4 4.33333L5.5 6M5.5 6L7 7.66667M5.5 6L4 7.66667M5.5 6L7 4.33333M5.5 11C4.90905 11 4.32389 10.8707 3.77792 10.6194C3.23196 10.3681 2.73588 9.99983 2.31802 9.53553C1.90016 9.07124 1.56869 8.52005 1.34254 7.91342C1.1164 7.30679 1 6.65661 1 6C1 5.34339 1.1164 4.69321 1.34254 4.08658C1.56869 3.47995 1.90016 2.92876 2.31802 2.46447C2.73588 2.00017 3.23196 1.63188 3.77792 1.3806C4.32389 1.12933 4.90905 1 5.5 1C6.69347 1 7.83807 1.52678 8.68198 2.46447C9.52589 3.40215 10 4.67392 10 6C10 7.32608 9.52589 8.59785 8.68198 9.53553C7.83807 10.4732 6.69347 11 5.5 11Z" stroke="white" stroke-width="2" stroke-linecap="round" stroke-linejoin="round"/>
</svg>
