<svg width="25" height="25" viewBox="0 0 25 25" fill="none" xmlns="http://www.w3.org/2000/svg">
<path d="M24.1667 9.78261H23.0417L20.1479 1.29076C20.017 0.906558 19.8034 0.580135 19.5331 0.351039C19.2628 0.121942 18.9474 5.03288e-06 18.625 0H6.375C6.05264 5.03288e-06 5.73721 0.121942 5.46691 0.351039C5.19661 0.580135 4.98304 0.906558 4.85208 1.29076L1.95833 9.78261H0.833333C0.61232 9.78261 0.400358 9.89713 0.244078 10.101C0.0877973 10.3048 0 10.5813 0 10.8696C0 11.1578 0.0877973 11.4343 0.244078 11.6382C0.400358 11.842 0.61232 11.9565 0.833333 11.9565H1.66667V22.8261C1.66667 23.4026 1.84226 23.9556 2.15482 24.3633C2.46738 24.771 2.89131 25 3.33333 25H5.83333C6.27536 25 6.69928 24.771 7.01184 24.3633C7.3244 23.9556 7.5 23.4026 7.5 22.8261V20.6522H17.5V22.8261C17.5 23.4026 17.6756 23.9556 17.9882 24.3633C18.3007 24.771 18.7246 25 19.1667 25H21.6667C22.1087 25 22.5326 24.771 22.8452 24.3633C23.1577 23.9556 23.3333 23.4026 23.3333 22.8261V11.9565H24.1667C24.3877 11.9565 24.5996 11.842 24.7559 11.6382C24.9122 11.4343 25 11.1578 25 10.8696C25 10.5813 24.9122 10.3048 24.7559 10.101C24.5996 9.89713 24.3877 9.78261 24.1667 9.78261ZM6.375 2.17391H18.625L21.2177 9.78261H3.78229L6.375 2.17391ZM5.83333 22.8261H3.33333V20.6522H5.83333V22.8261ZM19.1667 22.8261V20.6522H21.6667V22.8261H19.1667ZM21.6667 18.4783H3.33333V11.9565H21.6667V18.4783ZM5 15.2174C5 14.9291 5.0878 14.6526 5.24408 14.4488C5.40036 14.245 5.61232 14.1304 5.83333 14.1304H7.5C7.72101 14.1304 7.93297 14.245 8.08926 14.4488C8.24554 14.6526 8.33333 14.9291 8.33333 15.2174C8.33333 15.5057 8.24554 15.7821 8.08926 15.986C7.93297 16.1898 7.72101 16.3043 7.5 16.3043H5.83333C5.61232 16.3043 5.40036 16.1898 5.24408 15.986C5.0878 15.7821 5 15.5057 5 15.2174ZM16.6667 15.2174C16.6667 14.9291 16.7545 14.6526 16.9107 14.4488C17.067 14.245 17.279 14.1304 17.5 14.1304H19.1667C19.3877 14.1304 19.5996 14.245 19.7559 14.4488C19.9122 14.6526 20 14.9291 20 15.2174C20 15.5057 19.9122 15.7821 19.7559 15.986C19.5996 16.1898 19.3877 16.3043 19.1667 16.3043H17.5C17.279 16.3043 17.067 16.1898 16.9107 15.986C16.7545 15.7821 16.6667 15.5057 16.6667 15.2174Z" fill="#AAAAAA"/>
</svg>
