<svg width="25" height="22" viewBox="0 0 25 22" fill="none" xmlns="http://www.w3.org/2000/svg">
<path d="M24.1667 8.72727H23.0417L20.1479 1.625C20.017 1.30367 19.8034 1.03066 19.5331 0.839052C19.2628 0.647444 18.9474 0.54546 18.625 0.545456H6.375C6.05264 0.54546 5.73721 0.647444 5.46691 0.839052C5.19661 1.03066 4.98304 1.30367 4.85208 1.625L1.95833 8.72727H0.833333C0.61232 8.72727 0.400358 8.82305 0.244078 8.99354C0.0877973 9.16403 0 9.39526 0 9.63636C0 9.87747 0.0877973 10.1087 0.244078 10.2792C0.400358 10.4497 0.61232 10.5455 0.833333 10.5455H1.66667V19.6364C1.66667 20.1186 1.84226 20.581 2.15482 20.922C2.46738 21.263 2.89131 21.4545 3.33333 21.4545H5.83333C6.27536 21.4545 6.69928 21.263 7.01184 20.922C7.3244 20.581 7.5 20.1186 7.5 19.6364V17.8182H17.5V19.6364C17.5 20.1186 17.6756 20.581 17.9882 20.922C18.3007 21.263 18.7246 21.4545 19.1667 21.4545H21.6667C22.1087 21.4545 22.5326 21.263 22.8452 20.922C23.1577 20.581 23.3333 20.1186 23.3333 19.6364V10.5455H24.1667C24.3877 10.5455 24.5996 10.4497 24.7559 10.2792C24.9122 10.1087 25 9.87747 25 9.63636C25 9.39526 24.9122 9.16403 24.7559 8.99354C24.5996 8.82305 24.3877 8.72727 24.1667 8.72727ZM6.375 2.36364H18.625L21.2177 8.72727H3.78229L6.375 2.36364ZM5.83333 19.6364H3.33333V17.8182H5.83333V19.6364ZM19.1667 19.6364V17.8182H21.6667V19.6364H19.1667ZM21.6667 16H3.33333V10.5455H21.6667V16ZM5 13.2727C5 13.0316 5.0878 12.8004 5.24408 12.6299C5.40036 12.4594 5.61232 12.3636 5.83333 12.3636H7.5C7.72101 12.3636 7.93297 12.4594 8.08926 12.6299C8.24554 12.8004 8.33333 13.0316 8.33333 13.2727C8.33333 13.5138 8.24554 13.7451 8.08926 13.9156C7.93297 14.086 7.72101 14.1818 7.5 14.1818H5.83333C5.61232 14.1818 5.40036 14.086 5.24408 13.9156C5.0878 13.7451 5 13.5138 5 13.2727ZM16.6667 13.2727C16.6667 13.0316 16.7545 12.8004 16.9107 12.6299C17.067 12.4594 17.279 12.3636 17.5 12.3636H19.1667C19.3877 12.3636 19.5996 12.4594 19.7559 12.6299C19.9122 12.8004 20 13.0316 20 13.2727C20 13.5138 19.9122 13.7451 19.7559 13.9156C19.5996 14.086 19.3877 14.1818 19.1667 14.1818H17.5C17.279 14.1818 17.067 14.086 16.9107 13.9156C16.7545 13.7451 16.6667 13.5138 16.6667 13.2727Z" fill="#AAAAAA"/>
</svg>
