<svg width="17" height="22" viewBox="0 0 17 22" fill="none" xmlns="http://www.w3.org/2000/svg">
<path d="M13 5.28817C12.9998 5.85111 12.8833 6.4085 12.657 6.92852C12.4307 7.44854 12.0992 7.921 11.6814 8.31893C11.2635 8.71685 10.7675 9.03246 10.2216 9.24771C9.67576 9.46297 9.09075 9.57366 8.5 9.57347C7.61028 9.57319 6.74063 9.3215 6.00102 8.85023C5.26141 8.37897 4.68506 7.70929 4.34485 6.92588C4.00465 6.14247 3.91586 5.28052 4.08973 4.44903C4.2636 3.61754 4.6923 2.85386 5.32164 2.25455C5.95098 1.65524 6.75268 1.24722 7.62536 1.08209C8.49804 0.916964 9.40251 1.00214 10.2244 1.32686C11.0463 1.65157 11.7486 2.20124 12.2427 2.90634C12.7368 3.61145 13.0003 4.44033 13 5.28817ZM16 21H1V18.1469C1 17.0097 1.47411 15.9189 2.31802 15.1148C3.16193 14.3106 4.30653 13.8588 5.5 13.8588H11.5C12.6935 13.8588 13.8381 14.3106 14.682 15.1148C15.5259 15.9189 16 17.0097 16 18.1469V21Z" stroke="#9A9A9A" stroke-width="2" stroke-linecap="square"/>
</svg>
