<svg width="20" height="16" viewBox="0 0 20 16" fill="none" xmlns="http://www.w3.org/2000/svg">
<path d="M17.6923 2.08696H17.2353C15.8466 2.08696 14.5405 1.42725 13.7163 0.309565V0.309565C13.6461 0.214393 13.551 0.13635 13.4395 0.0823527C13.328 0.0283549 13.2034 6.86999e-05 13.0769 0H6.92308C6.79656 6.86999e-05 6.67202 0.0283549 6.56049 0.0823527C6.44895 0.13635 6.35387 0.214393 6.28365 0.309565V0.309565C5.45887 1.4273 4.15231 2.08696 2.76321 2.08696H2.30769C1.69565 2.08696 1.10868 2.30683 0.675908 2.69821C0.243131 3.08959 0 3.62042 0 4.17391V13.913C0 14.4665 0.243131 14.9974 0.675908 15.3887C1.10868 15.7801 1.69565 16 2.30769 16H17.6923C18.3043 16 18.8913 15.7801 19.3241 15.3887C19.7569 14.9974 20 14.4665 20 13.913V4.17391C20 3.62042 19.7569 3.08959 19.3241 2.69821C18.8913 2.30683 18.3043 2.08696 17.6923 2.08696ZM18.4615 13.913C18.4615 14.0975 18.3805 14.2745 18.2362 14.4049C18.092 14.5354 17.8963 14.6087 17.6923 14.6087H2.30769C2.10368 14.6087 1.90802 14.5354 1.76376 14.4049C1.61951 14.2745 1.53846 14.0975 1.53846 13.913V4.17391C1.53846 3.98941 1.61951 3.81247 1.76376 3.68201C1.90802 3.55155 2.10368 3.47826 2.30769 3.47826H5.38462C5.51129 3.47834 5.63602 3.45012 5.74774 3.39611C5.85946 3.34211 5.9547 3.26399 6.025 3.1687V3.1687C6.84849 2.05106 8.15412 1.3913 9.54238 1.3913H10.4561C11.8448 1.3913 13.1509 2.05101 13.975 3.1687V3.1687C14.0453 3.26399 14.1405 3.34211 14.2523 3.39611C14.364 3.45012 14.4887 3.47834 14.6154 3.47826H17.6923C17.8963 3.47826 18.092 3.55155 18.2362 3.68201C18.3805 3.81247 18.4615 3.98941 18.4615 4.17391V13.913ZM10 4.86957C9.16323 4.86957 8.34526 5.09396 7.64951 5.51438C6.95376 5.93479 6.4115 6.53235 6.09128 7.23147C5.77106 7.9306 5.68728 8.6999 5.85052 9.44208C6.01377 10.1843 6.41671 10.866 7.00839 11.4011C7.60008 11.9362 8.35393 12.3006 9.17462 12.4482C9.99531 12.5959 10.846 12.5201 11.619 12.2305C12.3921 11.9409 13.0529 11.4505 13.5178 10.8213C13.9826 10.1921 14.2308 9.45238 14.2308 8.69565C14.2295 7.68126 13.7833 6.70875 12.9902 5.99147C12.1971 5.27419 11.1217 4.87072 10 4.86957ZM10 11.1304C9.46751 11.1304 8.94698 10.9876 8.50423 10.7201C8.06149 10.4526 7.71641 10.0723 7.51263 9.6274C7.30886 9.1825 7.25554 8.69295 7.35942 8.22065C7.46331 7.74835 7.71973 7.31451 8.09625 6.974C8.47278 6.63349 8.9525 6.4016 9.47476 6.30765C9.99701 6.21371 10.5383 6.26192 11.0303 6.44621C11.5223 6.63049 11.9427 6.94256 12.2386 7.34296C12.5344 7.74336 12.6923 8.2141 12.6923 8.69565C12.6923 9.3414 12.4087 9.96069 11.9038 10.4173C11.3988 10.8739 10.714 11.1304 10 11.1304Z" fill="#0B4F98"/>
</svg>
