<svg width="25" height="25" viewBox="0 0 25 25" fill="none" xmlns="http://www.w3.org/2000/svg">
<mask id="path-1-inside-1_1_3763" fill="white">
<path fill-rule="evenodd" clip-rule="evenodd" d="M22.1154 1.92308H13.4615V11.5385H23.0769V2.88462C23.0769 2.6296 22.9756 2.38503 22.7953 2.20471C22.615 2.02438 22.3704 1.92308 22.1154 1.92308ZM23.0769 13.4615H13.4615V23.0769H22.1154C22.3704 23.0769 22.615 22.9756 22.7953 22.7953C22.9756 22.615 23.0769 22.3704 23.0769 22.1154V13.4615ZM11.5385 11.5385V1.92308H2.88462C2.6296 1.92308 2.38503 2.02438 2.20471 2.20471C2.02438 2.38503 1.92308 2.6296 1.92308 2.88462V11.5385H11.5385ZM1.92308 13.4615V22.1154C1.92308 22.3704 2.02438 22.615 2.20471 22.7953C2.38503 22.9756 2.6296 23.0769 2.88462 23.0769H11.5385V13.4615H1.92308ZM2.88462 0C2.11957 0 1.38585 0.303914 0.844884 0.844884C0.303914 1.38585 0 2.11957 0 2.88462V22.1154C0 22.8804 0.303914 23.6141 0.844884 24.1551C1.38585 24.6961 2.11957 25 2.88462 25H22.1154C22.8804 25 23.6141 24.6961 24.1551 24.1551C24.6961 23.6141 25 22.8804 25 22.1154V2.88462C25 2.11957 24.6961 1.38585 24.1551 0.844884C23.6141 0.303914 22.8804 0 22.1154 0H2.88462Z"/>
</mask>
<path fill-rule="evenodd" clip-rule="evenodd" d="M22.1154 1.92308H13.4615V11.5385H23.0769V2.88462C23.0769 2.6296 22.9756 2.38503 22.7953 2.20471C22.615 2.02438 22.3704 1.92308 22.1154 1.92308ZM23.0769 13.4615H13.4615V23.0769H22.1154C22.3704 23.0769 22.615 22.9756 22.7953 22.7953C22.9756 22.615 23.0769 22.3704 23.0769 22.1154V13.4615ZM11.5385 11.5385V1.92308H2.88462C2.6296 1.92308 2.38503 2.02438 2.20471 2.20471C2.02438 2.38503 1.92308 2.6296 1.92308 2.88462V11.5385H11.5385ZM1.92308 13.4615V22.1154C1.92308 22.3704 2.02438 22.615 2.20471 22.7953C2.38503 22.9756 2.6296 23.0769 2.88462 23.0769H11.5385V13.4615H1.92308ZM2.88462 0C2.11957 0 1.38585 0.303914 0.844884 0.844884C0.303914 1.38585 0 2.11957 0 2.88462V22.1154C0 22.8804 0.303914 23.6141 0.844884 24.1551C1.38585 24.6961 2.11957 25 2.88462 25H22.1154C22.8804 25 23.6141 24.6961 24.1551 24.1551C24.6961 23.6141 25 22.8804 25 22.1154V2.88462C25 2.11957 24.6961 1.38585 24.1551 0.844884C23.6141 0.303914 22.8804 0 22.1154 0H2.88462Z" fill="#969696"/>
<path d="M22.1154 1.92308V-0.0769231V1.92308ZM13.4615 1.92308V-0.0769231H11.4615V1.92308H13.4615ZM13.4615 11.5385H11.4615V13.5385H13.4615V11.5385ZM23.0769 11.5385V13.5385H25.0769V11.5385H23.0769ZM23.0769 13.4615H25.0769V11.4615H23.0769V13.4615ZM13.4615 13.4615V11.4615H11.4615V13.4615H13.4615ZM13.4615 23.0769H11.4615V25.0769H13.4615V23.0769ZM11.5385 11.5385V13.5385H13.5385V11.5385H11.5385ZM11.5385 1.92308H13.5385V-0.0769231H11.5385V1.92308ZM1.92308 2.88462H-0.0769231H1.92308ZM1.92308 11.5385H-0.0769231V13.5385H1.92308V11.5385ZM1.92308 13.4615V11.4615H-0.0769231V13.4615H1.92308ZM11.5385 23.0769V25.0769H13.5385V23.0769H11.5385ZM11.5385 13.4615H13.5385V11.4615H11.5385V13.4615ZM2.88462 0L2.88462 -2L2.88462 0ZM0 2.88462H-2H0ZM0 22.1154L-2 22.1154L0 22.1154ZM22.1154 25L22.1154 27L22.1154 25ZM25 2.88462L27 2.88462L25 2.88462ZM22.1154 -0.0769231H13.4615V3.92308H22.1154V-0.0769231ZM11.4615 1.92308V11.5385H15.4615V1.92308H11.4615ZM13.4615 13.5385H23.0769V9.53846H13.4615V13.5385ZM25.0769 11.5385V2.88462H21.0769V11.5385H25.0769ZM25.0769 2.88462C25.0769 2.09917 24.7649 1.34589 24.2095 0.790492L21.3811 3.61892C21.1863 3.42417 21.0769 3.16003 21.0769 2.88462H25.0769ZM24.2095 0.790492C23.6541 0.235095 22.9008 -0.0769231 22.1154 -0.0769231L22.1154 3.92308C21.84 3.92308 21.5758 3.81367 21.3811 3.61892L24.2095 0.790492ZM23.0769 11.4615H13.4615V15.4615H23.0769V11.4615ZM11.4615 13.4615V23.0769H15.4615V13.4615H11.4615ZM13.4615 25.0769H22.1154V21.0769H13.4615V25.0769ZM22.1154 25.0769C22.9008 25.0769 23.6541 24.7649 24.2095 24.2095L21.3811 21.3811C21.5758 21.1863 21.84 21.0769 22.1154 21.0769V25.0769ZM24.2095 24.2095C24.7649 23.6541 25.0769 22.9008 25.0769 22.1154H21.0769C21.0769 21.84 21.1863 21.5758 21.3811 21.3811L24.2095 24.2095ZM25.0769 22.1154V13.4615H21.0769V22.1154H25.0769ZM13.5385 11.5385V1.92308H9.53846V11.5385H13.5385ZM11.5385 -0.0769231H2.88462V3.92308H11.5385V-0.0769231ZM2.88462 -0.0769231C2.09917 -0.0769231 1.34589 0.235096 0.790492 0.790492L3.61892 3.61892C3.42417 3.81367 3.16003 3.92308 2.88462 3.92308V-0.0769231ZM0.790492 0.790492C0.235096 1.34589 -0.0769231 2.09917 -0.0769231 2.88462L3.92308 2.88462C3.92308 3.16003 3.81367 3.42417 3.61892 3.61892L0.790492 0.790492ZM-0.0769231 2.88462V11.5385H3.92308V2.88462H-0.0769231ZM1.92308 13.5385H11.5385V9.53846H1.92308V13.5385ZM-0.0769231 13.4615V22.1154H3.92308V13.4615H-0.0769231ZM-0.0769231 22.1154C-0.0769231 22.9008 0.235095 23.6541 0.790492 24.2095L3.61892 21.3811C3.81367 21.5758 3.92308 21.84 3.92308 22.1154H-0.0769231ZM0.790492 24.2095C1.34589 24.7649 2.09917 25.0769 2.88462 25.0769V21.0769C3.16003 21.0769 3.42417 21.1863 3.61892 21.3811L0.790492 24.2095ZM2.88462 25.0769H11.5385V21.0769H2.88462V25.0769ZM13.5385 23.0769V13.4615H9.53846V23.0769H13.5385ZM11.5385 11.4615H1.92308V15.4615H11.5385V11.4615ZM2.88462 -2C1.58913 -2 0.346714 -1.48537 -0.569329 -0.569329L2.2591 2.2591C2.425 2.0932 2.65 2 2.88462 2L2.88462 -2ZM-0.569329 -0.569329C-1.48537 0.346714 -2 1.58913 -2 2.88462L2 2.88462C2 2.65 2.0932 2.425 2.2591 2.2591L-0.569329 -0.569329ZM-2 2.88462V22.1154H2V2.88462H-2ZM-2 22.1154C-2 23.4109 -1.48537 24.6533 -0.569329 25.5693L2.2591 22.7409C2.0932 22.575 2 22.35 2 22.1154L-2 22.1154ZM-0.569329 25.5693C0.346714 26.4854 1.58914 27 2.88462 27V23C2.65 23 2.425 22.9068 2.2591 22.7409L-0.569329 25.5693ZM2.88462 27H22.1154V23H2.88462V27ZM22.1154 27C23.4109 27 24.6533 26.4854 25.5693 25.5693L22.7409 22.7409C22.575 22.9068 22.35 23 22.1154 23L22.1154 27ZM25.5693 25.5693C26.4854 24.6533 27 23.4109 27 22.1154H23C23 22.35 22.9068 22.575 22.7409 22.7409L25.5693 25.5693ZM27 22.1154V2.88462H23V22.1154H27ZM27 2.88462C27 1.58914 26.4854 0.346714 25.5693 -0.569329L22.7409 2.2591C22.9068 2.425 23 2.65 23 2.88462L27 2.88462ZM25.5693 -0.569329C24.6533 -1.48537 23.4109 -2 22.1154 -2V2C22.35 2 22.575 2.0932 22.7409 2.2591L25.5693 -0.569329ZM22.1154 -2H2.88462V2H22.1154V-2Z" fill="#969696" mask="url(#path-1-inside-1_1_3763)"/>
</svg>
