<svg width="25" height="25" viewBox="0 0 25 25" fill="none" xmlns="http://www.w3.org/2000/svg">
<path d="M14.2589 5.81682C14.4085 5.81682 14.4955 5.72101 14.5199 5.58953C14.9055 3.6071 14.8933 3.5592 17.0436 3.15354C17.1927 3.12908 17.2802 3.05773 17.2802 2.91402C17.2802 2.75909 17.1927 2.68724 17.0436 2.66328C14.8933 2.24539 14.906 2.20972 14.5199 0.226782C14.4955 0.0952992 14.4085 0 14.2589 0C14.1104 0 14.035 0.0952992 14.0106 0.226782C13.6128 2.20921 13.6372 2.24488 11.4742 2.66328C11.3373 2.68724 11.2381 2.75909 11.2381 2.91402C11.2381 3.05773 11.3378 3.12908 11.4742 3.15354C13.65 3.5592 13.6128 3.6071 14.0106 5.58953C14.035 5.72101 14.1098 5.81682 14.2589 5.81682ZM20.214 13.8908C20.4378 13.8908 20.5991 13.7358 20.624 13.5085C21.0345 10.2959 21.1709 10.248 24.565 9.71033C24.8387 9.66294 25 9.54318 25 9.30416C25 9.07738 24.8387 8.93418 24.6149 8.8985C21.1709 8.3369 21.0345 8.31295 20.624 5.09978C20.5991 4.873 20.4378 4.71757 20.214 4.71757C19.9774 4.71757 19.8162 4.873 19.7912 5.08806C19.3563 8.30123 19.2566 8.3369 15.8008 8.8985C15.577 8.93418 15.4152 9.07738 15.4152 9.30416C15.4152 9.53145 15.577 9.66294 15.8008 9.71033C19.2566 10.248 19.3812 10.2959 19.7912 13.5325C19.8009 13.6327 19.85 13.7256 19.9286 13.7922C20.0072 13.8588 20.1093 13.894 20.214 13.8908ZM10.8652 24.9995C15.4152 24.9995 19.0953 22.802 20.7736 19.0634C20.9969 18.5497 20.9221 18.1558 20.6866 17.9168C20.4627 17.7139 20.0899 17.666 19.6416 17.8332C18.7097 18.1915 17.5661 18.3943 16.1361 18.3943C10.5793 18.3943 6.99896 15.0619 6.99896 9.81837C6.99896 8.37308 7.28486 6.94003 7.66995 6.18732C7.91925 5.7098 7.89379 5.30363 7.68268 5.0529C7.44664 4.78993 7.02389 4.70636 6.43936 4.93314C2.62295 6.42633 0 10.2485 0 14.7158C0 20.5327 4.45027 24.9995 10.8652 24.9995ZM10.8902 23.1847C5.58166 23.1847 1.88937 19.4696 1.88937 14.5726C1.88937 11.5628 3.3438 8.91125 5.65645 7.21522C5.35782 7.99138 5.18384 9.18593 5.18384 10.3326C5.18384 16.209 9.4108 20.151 15.664 20.151C16.7832 20.151 17.8021 20.0195 18.3241 19.8401C16.7699 21.9066 13.9979 23.1847 10.8902 23.1847Z" fill="#9A9A9A"/>
</svg>
