<svg width="23" height="25" viewBox="0 0 23 25" fill="none" xmlns="http://www.w3.org/2000/svg">
<path d="M21.5625 2.33881L15.8075 2.33883V0.781433C15.8075 0.349691 15.4858 0 15.0887 0C14.6916 0 14.37 0.349691 14.37 0.781433V2.33844H8.61997V0.781433C8.61997 0.349691 8.29833 0 7.90122 0C7.50411 0 7.18247 0.349691 7.18247 0.781433V2.33844H1.4375C0.643641 2.33844 0 3.03821 0 3.9013V23.4371C0 24.3002 0.643641 25 1.4375 25H21.5625C22.3564 25 23 24.3002 23 23.4371V3.9013C23 3.03858 22.3564 2.33881 21.5625 2.33881ZM21.5625 23.4371H1.4375V3.9013H7.18247V4.6886C7.18247 5.12032 7.50411 5.47003 7.90122 5.47003C8.29833 5.47003 8.61997 5.12032 8.61997 4.6886V3.9017H14.37V4.68899C14.37 5.12073 14.6916 5.47042 15.0887 5.47042C15.4858 5.47042 15.8075 5.12073 15.8075 4.68899V3.9017H21.5625V23.4371ZM16.5312 12.4974H17.9688C18.3655 12.4974 18.6875 12.1474 18.6875 11.716V10.1531C18.6875 9.72179 18.3655 9.3717 17.9688 9.3717H16.5312C16.1345 9.3717 15.8125 9.72179 15.8125 10.1531V11.716C15.8125 12.1474 16.1345 12.4974 16.5312 12.4974ZM16.5312 18.7485H17.9688C18.3655 18.7485 18.6875 18.3988 18.6875 17.9671V16.4042C18.6875 15.9729 18.3655 15.6228 17.9688 15.6228H16.5312C16.1345 15.6228 15.8125 15.9729 15.8125 16.4042V17.9671C15.8125 18.3992 16.1345 18.7485 16.5312 18.7485ZM12.2188 15.6228H10.7812C10.3845 15.6228 10.0625 15.9729 10.0625 16.4042V17.9671C10.0625 18.3988 10.3845 18.7485 10.7812 18.7485H12.2188C12.6155 18.7485 12.9375 18.3988 12.9375 17.9671V16.4042C12.9375 15.9733 12.6155 15.6228 12.2188 15.6228ZM12.2188 9.3717H10.7812C10.3845 9.3717 10.0625 9.72179 10.0625 10.1531V11.716C10.0625 12.1474 10.3845 12.4974 10.7812 12.4974H12.2188C12.6155 12.4974 12.9375 12.1474 12.9375 11.716V10.1531C12.9375 9.72139 12.6155 9.3717 12.2188 9.3717ZM6.46875 9.3717H5.03125C4.6345 9.3717 4.3125 9.72179 4.3125 10.1531V11.716C4.3125 12.1474 4.6345 12.4974 5.03125 12.4974H6.46875C6.8655 12.4974 7.1875 12.1474 7.1875 11.716V10.1531C7.1875 9.72139 6.8655 9.3717 6.46875 9.3717ZM6.46875 15.6228H5.03125C4.6345 15.6228 4.3125 15.9729 4.3125 16.4042V17.9671C4.3125 18.3988 4.6345 18.7485 5.03125 18.7485H6.46875C6.8655 18.7485 7.1875 18.3988 7.1875 17.9671V16.4042C7.1875 15.9733 6.8655 15.6228 6.46875 15.6228Z" fill="#AAAAAA"/>
</svg>
